# xmcd
#
# Track frame offsets:
#	182
#	9320
#	21752
#	32605
#	42800
#	53815
#	64340
#	75817
#	90157
#	107220
#	125075
#	140175
#
# Disc length: 2169
#
# Revision: 4
# Processed by: cddbd v1.5.1PL0 Copyright (c) Steve Scherf et al.
# Submitted via: EasyCDDAExtractor 5.0.7
# Normalized: r3:DSETVAR1
#
DISCID=9108770c
DTITLE=Various Artist - Out of the Blue (Rothmans)
DYEAR=1994
DGENRE=Blues
TTITLE0=Eddie Cochran - Summertime Blues
TTITLE1=Grover Washington - Maddies Blues
TTITLE2=Tommy James and The Shondells - Out of the Blue
TTITLE3=The Marcels - Blue Moon
TTITLE4=Guy Mitchell - Singing the Blues
TTITLE5=Fats Domino - Blueberry Hill
TTITLE6=Crystal Gayle - Don't It Make My Brown Eyes Blue
TTITLE7=Moody Blues - Go Now
TTITLE8=Blue Oyster Cult - (Don't Fear) The Reaper
TTITLE9=The Mighty Wah! - The Story of the Blues (Part 1)
TTITLE10=Blondie - Union City Blue
TTITLE11=Electric Light Orchestra - Mr Blue Sky
EXTD=
EXTT0=
EXTT1=
EXTT2=
EXTT3=
EXTT4=
EXTT5=
EXTT6=
EXTT7=
EXTT8=
EXTT9=
EXTT10=
EXTT11=
PLAYORDER=
